<svg id="Layer_1" data-name="Layer 1" xmlns="http://www.w3.org/2000/svg" viewBox="0 0 595 420"><defs><style>.cls-1{font-size:32.25891px;fill:#231f20;font-family:Futura-Dem, Futura;letter-spacing:-0.031em;}.cls-2{letter-spacing:-0.035em;}.cls-3{letter-spacing:-0.03101em;}.cls-4{letter-spacing:-0.06996em;}.cls-5{fill:#91ce9c;}.cls-6{fill:#a5d6aa;}</style></defs><text class="cls-1" transform="translate(218.57974 251.97738)">G<tspan class="cls-2" x="23.58105" y="0">r</tspan><tspan class="cls-3" x="34.06494" y="0">een </tspan><tspan class="cls-4" x="88.74268" y="0">T</tspan><tspan x="100.77588" y="0">able</tspan></text><circle class="cls-5" cx="264.9553" cy="189.54287" r="6.53994"/><path class="cls-5" d="M305.66362,159.9586a30.92059,30.92059,0,1,0,30.91531,30.91531A30.90655,30.90655,0,0,0,305.66362,159.9586Zm0,37.46119a6.5406,6.5406,0,1,1,6.53526-6.54588A6.54039,6.54039,0,0,1,305.66362,197.41979Z"/><path class="cls-6" d="M305.65823,159.9586a30.92059,30.92059,0,1,0,30.926,30.91523A30.916,30.916,0,0,0,305.65823,159.9586Zm0,58.168A27.25281,27.25281,0,1,1,332.911,190.87383,27.24978,27.24978,0,0,1,305.65823,218.12661Z"/></svg>