<svg id="Layer_1" data-name="Layer 1" xmlns="http://www.w3.org/2000/svg" viewBox="0 0 595 420"><defs><style>.cls-1{font-size:43.38019px;fill:#231f20;font-family:Futura-Dem, Futura;letter-spacing:-0.031em;}.cls-2{letter-spacing:-0.03499em;}.cls-3{letter-spacing:-0.03101em;}.cls-4{letter-spacing:-0.06997em;}.cls-5{fill:#91ce9c;}.cls-6{fill:#a5d6aa;}</style></defs><text class="cls-1" transform="translate(251.7126 225.26672)">G<tspan class="cls-2" x="31.71045" y="0">r</tspan><tspan class="cls-3" x="45.80859" y="0">een </tspan><tspan class="cls-4" x="119.33643" y="0">T</tspan><tspan x="135.51807" y="0">able</tspan></text><circle class="cls-5" cx="139.82661" cy="208.20298" r="8.79459"/><path class="cls-5" d="M194.56915,168.41951a41.58049,41.58049,0,1,0,41.57339,41.57339A41.56162,41.56162,0,0,0,194.56915,168.41951Zm0,50.376a8.79548,8.79548,0,1,1,8.78829-8.80258A8.7952,8.7952,0,0,1,194.56915,218.79548Z"/><path class="cls-6" d="M194.5619,168.41951a41.58049,41.58049,0,1,0,41.58778,41.57328A41.57435,41.57435,0,0,0,194.5619,168.41951Zm0,78.22148a36.64824,36.64824,0,1,1,36.64819-36.6482A36.64415,36.64415,0,0,1,194.5619,246.641Z"/></svg>