<svg id="Layer_1" data-name="Layer 1" xmlns="http://www.w3.org/2000/svg" viewBox="0 0 32 32"><defs><style>.cls-1{fill:#91ce9c;}.cls-2{fill:#a5d6aa;}</style></defs><circle class="cls-1" cx="3.39163" cy="15.48228" r="2.5337"/><path class="cls-1" d="M19.16282,4.02076A11.97924,11.97924,0,1,0,31.14,15.998,11.9738,11.9738,0,0,0,19.16282,4.02076Zm0,14.51319a2.534,2.534,0,1,1,2.53189-2.536A2.53387,2.53387,0,0,1,19.16282,18.534Z"/><path class="cls-2" d="M19.16073,4.02076A11.97924,11.97924,0,1,0,31.14207,15.99792,11.97747,11.97747,0,0,0,19.16073,4.02076Zm0,22.53542A10.55827,10.55827,0,1,1,29.719,15.99792,10.55709,10.55709,0,0,1,19.16073,26.55618Z"/></svg>